<?xml version="1.0" encoding="UTF-8" standalone="no"?>
<!-- Created with Inkscape (http://www.inkscape.org/) -->

<svg
   xmlns:dc="http://purl.org/dc/elements/1.1/"
   xmlns:cc="http://creativecommons.org/ns#"
   xmlns:rdf="http://www.w3.org/1999/02/22-rdf-syntax-ns#"
   xmlns:svg="http://www.w3.org/2000/svg"
   xmlns="http://www.w3.org/2000/svg"
   xmlns:xlink="http://www.w3.org/1999/xlink"
   xmlns:sodipodi="http://sodipodi.sourceforge.net/DTD/sodipodi-0.dtd"
   xmlns:inkscape="http://www.inkscape.org/namespaces/inkscape"
   width="159.07898"
   height="126.08356"
   id="svg5240"
   version="1.1"
   inkscape:version="0.47 r22583"
   sodipodi:docname="ns04.svg"
   inkscape:export-filename="/usr/users/rsubrama/Desktop/Acads/inkscape/ns04.png"
   inkscape:export-xdpi="900"
   inkscape:export-ydpi="900">
  <defs
     id="defs5242">
    <inkscape:perspective
       sodipodi:type="inkscape:persp3d"
       inkscape:vp_x="0 : 526.18109 : 1"
       inkscape:vp_y="0 : 1000 : 0"
       inkscape:vp_z="744.09448 : 526.18109 : 1"
       inkscape:persp3d-origin="372.04724 : 350.78739 : 1"
       id="perspective5248" />
    <inkscape:perspective
       id="perspective5208"
       inkscape:persp3d-origin="0.5 : 0.33333333 : 1"
       inkscape:vp_z="1 : 0.5 : 1"
       inkscape:vp_y="0 : 1000 : 0"
       inkscape:vp_x="0 : 0.5 : 1"
       sodipodi:type="inkscape:persp3d" />
    <radialGradient
       inkscape:collect="always"
       xlink:href="#linearGradient4117"
       id="radialGradient5101"
       gradientUnits="userSpaceOnUse"
       gradientTransform="matrix(0.97560987,0.02438982,-0.02499175,0.99968766,11.003917,-3.995242)"
       cx="167.35481"
       cy="276.97589"
       fx="167.35481"
       fy="276.97589"
       r="44.944633" />
    <linearGradient
       inkscape:collect="always"
       id="linearGradient4117">
      <stop
         style="stop-color:#ffffff;stop-opacity:1"
         offset="0"
         id="stop4119" />
      <stop
         style="stop-color:#280b0b;stop-opacity:1"
         offset="1"
         id="stop4121" />
    </linearGradient>
    <radialGradient
       inkscape:collect="always"
       xlink:href="#linearGradient5453"
       id="radialGradient5103"
       gradientUnits="userSpaceOnUse"
       gradientTransform="matrix(1.0505048,-0.01010169,0.00961559,0.99995377,-16.706838,2.8655226)"
       cx="282.50684"
       cy="253.64012"
       fx="282.50684"
       fy="253.64012"
       r="9.9815054" />
    <linearGradient
       id="linearGradient5453"
       inkscape:collect="always">
      <stop
         id="stop5455"
         offset="0"
         style="stop-color:#ffffff;stop-opacity:1" />
      <stop
         id="stop5457"
         offset="1"
         style="stop-color:#008000;stop-opacity:1" />
    </linearGradient>
    <radialGradient
       inkscape:collect="always"
       xlink:href="#linearGradient4211-7"
       id="radialGradient4449"
       gradientUnits="userSpaceOnUse"
       gradientTransform="matrix(1.0505048,-0.01010169,0.00961559,0.99995377,-16.706838,2.8655226)"
       cx="282.50684"
       cy="253.64012"
       fx="282.50684"
       fy="253.64012"
       r="9.9815054" />
    <linearGradient
       inkscape:collect="always"
       id="linearGradient4211-7">
      <stop
         style="stop-color:#ffffff;stop-opacity:1"
         offset="0"
         id="stop4213-7" />
      <stop
         style="stop-color:#ff0000;stop-opacity:1"
         offset="1"
         id="stop4215-2" />
    </linearGradient>
    <radialGradient
       inkscape:collect="always"
       xlink:href="#linearGradient3550"
       id="radialGradient4451"
       gradientUnits="userSpaceOnUse"
       gradientTransform="matrix(1.0505048,-0.01010169,0.00961559,0.99995377,-16.706838,2.8655226)"
       cx="282.50684"
       cy="253.64012"
       fx="282.50684"
       fy="253.64012"
       r="9.9815054" />
    <linearGradient
       id="linearGradient3550"
       inkscape:collect="always">
      <stop
         id="stop3552"
         offset="0"
         style="stop-color:#ffffff;stop-opacity:1" />
      <stop
         id="stop3554"
         offset="1"
         style="stop-color:#0000ff;stop-opacity:1" />
    </linearGradient>
    <inkscape:perspective
       id="perspective9103"
       inkscape:persp3d-origin="0.5 : 0.33333333 : 1"
       inkscape:vp_z="1 : 0.5 : 1"
       inkscape:vp_y="0 : 1000 : 0"
       inkscape:vp_x="0 : 0.5 : 1"
       sodipodi:type="inkscape:persp3d" />
    <radialGradient
       inkscape:collect="always"
       xlink:href="#linearGradient4211-7-6"
       id="radialGradient4449-4"
       gradientUnits="userSpaceOnUse"
       gradientTransform="matrix(1.0505048,-0.01010169,0.00961559,0.99995377,-16.706838,2.8655226)"
       cx="282.50684"
       cy="253.64012"
       fx="282.50684"
       fy="253.64012"
       r="9.9815054" />
    <linearGradient
       inkscape:collect="always"
       id="linearGradient4211-7-6">
      <stop
         style="stop-color:#ffffff;stop-opacity:1"
         offset="0"
         id="stop4213-7-7" />
      <stop
         style="stop-color:#ff0000;stop-opacity:1"
         offset="1"
         id="stop4215-2-3" />
    </linearGradient>
    <radialGradient
       inkscape:collect="always"
       xlink:href="#linearGradient3550-7"
       id="radialGradient4451-0"
       gradientUnits="userSpaceOnUse"
       gradientTransform="matrix(1.0505048,-0.01010169,0.00961559,0.99995377,-16.706838,2.8655226)"
       cx="282.50684"
       cy="253.64012"
       fx="282.50684"
       fy="253.64012"
       r="9.9815054" />
    <linearGradient
       id="linearGradient3550-7"
       inkscape:collect="always">
      <stop
         id="stop3552-1"
         offset="0"
         style="stop-color:#ffffff;stop-opacity:1" />
      <stop
         id="stop3554-2"
         offset="1"
         style="stop-color:#0000ff;stop-opacity:1" />
    </linearGradient>
    <radialGradient
       inkscape:collect="always"
       xlink:href="#linearGradient4117-7"
       id="radialGradient5101-9"
       gradientUnits="userSpaceOnUse"
       gradientTransform="matrix(0.97560987,0.02438982,-0.02499175,0.99968766,11.003917,-3.995242)"
       cx="167.35481"
       cy="276.97589"
       fx="167.35481"
       fy="276.97589"
       r="44.944633" />
    <linearGradient
       inkscape:collect="always"
       id="linearGradient4117-7">
      <stop
         style="stop-color:#ffffff;stop-opacity:1"
         offset="0"
         id="stop4119-4" />
      <stop
         style="stop-color:#280b0b;stop-opacity:1"
         offset="1"
         id="stop4121-4" />
    </linearGradient>
    <radialGradient
       inkscape:collect="always"
       xlink:href="#linearGradient5453-4"
       id="radialGradient5103-4"
       gradientUnits="userSpaceOnUse"
       gradientTransform="matrix(1.0505048,-0.01010169,0.00961559,0.99995377,-16.706838,2.8655226)"
       cx="282.50684"
       cy="253.64012"
       fx="282.50684"
       fy="253.64012"
       r="9.9815054" />
    <linearGradient
       id="linearGradient5453-4"
       inkscape:collect="always">
      <stop
         id="stop5455-2"
         offset="0"
         style="stop-color:#ffffff;stop-opacity:1" />
      <stop
         id="stop5457-4"
         offset="1"
         style="stop-color:#008000;stop-opacity:1" />
    </linearGradient>
  </defs>
  <sodipodi:namedview
     id="base"
     pagecolor="#ffffff"
     bordercolor="#666666"
     borderopacity="1.0"
     inkscape:pageopacity="0.0"
     inkscape:pageshadow="2"
     inkscape:zoom="5.7104989"
     inkscape:cx="47.580812"
     inkscape:cy="63.041777"
     inkscape:document-units="px"
     inkscape:current-layer="layer1"
     showgrid="false"
     inkscape:window-width="1680"
     inkscape:window-height="975"
     inkscape:window-x="0"
     inkscape:window-y="24"
     inkscape:window-maximized="1"
     units="cm" />
  <metadata
     id="metadata5245">
    <rdf:RDF>
      <cc:Work
         rdf:about="">
        <dc:format>image/svg+xml</dc:format>
        <dc:type
           rdf:resource="http://purl.org/dc/dcmitype/StillImage" />
        <dc:title></dc:title>
      </cc:Work>
    </rdf:RDF>
  </metadata>
  <g
     inkscape:label="Layer 1"
     inkscape:groupmode="layer"
     id="layer1"
     transform="translate(-193.7986,-392.77409)">
    <text
       xml:space="preserve"
       style="font-size:7.81873369px;font-style:normal;font-weight:normal;text-align:start;line-height:125%;writing-mode:lr-tb;text-anchor:start;fill:#000000;fill-opacity:1;stroke:none;font-family:Bitstream Vera Sans"
       x="199.74249"
       y="443.34827"
       id="text5465"
       sodipodi:linespacing="125%"><tspan
         sodipodi:role="line"
         id="tspan5467"
         x="199.74249"
         y="443.34827">0</tspan></text>
    <g
       id="g4444"
       transform="translate(-152.23943,351.98715)">
      <path
         id="path3544"
         d="M 365.33327,75.107323 C 350.98188,107.07768 350.98188,107.07768 350.98188,107.07768"
         style="fill:none;stroke:#000000;stroke-width:1.875;stroke-linecap:butt;stroke-linejoin:miter;stroke-miterlimit:4;stroke-opacity:1;stroke-dasharray:none" />
      <path
         sodipodi:type="arc"
         style="fill:url(#radialGradient4449-4);fill-opacity:1;fill-rule:nonzero;stroke:none"
         id="path5407"
         sodipodi:cx="283.01096"
         sodipodi:cy="253.53929"
         sodipodi:rx="9.9815054"
         sodipodi:ry="9.9815054"
         d="m 292.99246,253.53929 c 0,5.51263 -4.46887,9.98151 -9.9815,9.98151 -5.51264,0 -9.98151,-4.46888 -9.98151,-9.98151 0,-5.51263 4.46887,-9.9815 9.98151,-9.9815 5.51263,0 9.9815,4.46887 9.9815,9.9815 z"
         transform="matrix(0.45154132,0.20269546,-0.20269546,0.45154132,289.9912,-98.943844)" />
      <path
         transform="matrix(0.45154132,0.20269546,-0.20269546,0.45154132,274.57972,-65.174918)"
         d="m 292.99246,253.53929 c 0,5.51263 -4.46887,9.98151 -9.9815,9.98151 -5.51264,0 -9.98151,-4.46888 -9.98151,-9.98151 0,-5.51263 4.46887,-9.9815 9.98151,-9.9815 5.51263,0 9.9815,4.46887 9.9815,9.9815 z"
         sodipodi:ry="9.9815054"
         sodipodi:rx="9.9815054"
         sodipodi:cy="253.53929"
         sodipodi:cx="283.01096"
         id="path3546"
         style="fill:url(#radialGradient4451-0);fill-opacity:1;fill-rule:nonzero;stroke:none"
         sodipodi:type="arc" />
    </g>
    <text
       sodipodi:linespacing="125%"
       id="text4453"
       y="444.96213"
       x="336.45935"
       style="font-size:7.81873369px;font-style:normal;font-weight:normal;text-align:start;line-height:125%;writing-mode:lr-tb;text-anchor:start;fill:#000000;fill-opacity:1;stroke:none;font-family:Bitstream Vera Sans"
       xml:space="preserve"><tspan
         y="444.96213"
         x="336.45935"
         id="tspan4455"
         sodipodi:role="line">4</tspan></text>
    <g
       id="g5096"
       transform="translate(-72.92983,305.64636)">
      <path
         style="fill:none;stroke:#000000;stroke-width:1.875;stroke-linecap:butt;stroke-linejoin:miter;stroke-miterlimit:4;stroke-opacity:1;stroke-dasharray:none"
         d="m 398.67256,126.62866 c 20.92454,28.11102 20.92454,28.11102 20.92454,28.11102"
         id="path4431" />
      <path
         sodipodi:type="arc"
         style="fill:url(#radialGradient5101-9);fill-opacity:1;fill-rule:nonzero;stroke:none"
         id="path3913"
         sodipodi:cx="166.25861"
         sodipodi:cy="278.07208"
         sodipodi:rx="44.944633"
         sodipodi:ry="44.944633"
         d="m 211.20324,278.07208 c 0,24.82224 -20.1224,44.94464 -44.94463,44.94464 -24.82224,0 -44.94464,-20.1224 -44.94464,-44.94464 0,-24.82223 20.1224,-44.94463 44.94464,-44.94463 24.82223,0 44.94463,20.1224 44.94463,44.94463 z"
         transform="matrix(0.0662529,-0.08736869,0.09025786,0.06387496,361.01652,121.59735)" />
      <path
         sodipodi:type="arc"
         style="fill:url(#radialGradient5103-4);fill-opacity:1;fill-rule:nonzero;stroke:none"
         id="path5092"
         sodipodi:cx="283.01096"
         sodipodi:cy="253.53929"
         sodipodi:rx="9.9815054"
         sodipodi:ry="9.9815054"
         d="m 292.99246,253.53929 c 0,5.51263 -4.46887,9.98151 -9.9815,9.98151 -5.51264,0 -9.98151,-4.46888 -9.98151,-9.98151 0,-5.51263 4.46887,-9.9815 9.98151,-9.9815 5.51263,0 9.9815,4.46887 9.9815,9.9815 z"
         transform="matrix(0.49494951,0,0,0.49494951,280.79094,30.148347)" />
    </g>
    <g
       transform="translate(-63.93833,328.93203)"
       id="g6400"
       style="fill:#ffffff;fill-opacity:1;stroke:none">
      <path
         id="path5131"
         d="m 285.54859,142.14705 c -0.27448,35.0427 -0.27448,35.0427 -0.27448,35.0427"
         style="fill:#ffffff;fill-opacity:1;stroke:none" />
      <path
         sodipodi:type="arc"
         style="fill:#ffffff;fill-opacity:1;fill-rule:nonzero;stroke:none"
         id="path5133"
         sodipodi:cx="283.01096"
         sodipodi:cy="253.53929"
         sodipodi:rx="9.9815054"
         sodipodi:ry="9.9815054"
         d="m 292.99246,253.53929 c 0,5.51263 -4.46887,9.98151 -9.9815,9.98151 -5.51264,0 -9.98151,-4.46888 -9.98151,-9.98151 0,-5.51263 4.46887,-9.9815 9.98151,-9.9815 5.51263,0 9.9815,4.46887 9.9815,9.9815 z"
         transform="matrix(0.49493433,0.00387664,-0.00387664,0.49493433,146.54175,13.122502)" />
      <path
         transform="matrix(0.49493433,0.00387664,-0.00387664,0.49493433,146.02047,50.238299)"
         d="m 292.99246,253.53929 c 0,5.51263 -4.46887,9.98151 -9.9815,9.98151 -5.51264,0 -9.98151,-4.46888 -9.98151,-9.98151 0,-5.51263 4.46887,-9.9815 9.98151,-9.9815 5.51263,0 9.9815,4.46887 9.9815,9.9815 z"
         sodipodi:ry="9.9815054"
         sodipodi:rx="9.9815054"
         sodipodi:cy="253.53929"
         sodipodi:cx="283.01096"
         id="path5135"
         style="fill:#ffffff;fill-opacity:1;fill-rule:nonzero;stroke:none"
         sodipodi:type="arc" />
    </g>
    <g
       id="g5357"
       transform="translate(-72.46873,328.93203)"
       style="fill:#ffffff;fill-opacity:1;stroke:none">
      <path
         style="fill:#ffffff;fill-opacity:1;stroke:none"
         d="m 345.97222,71.193122 c 6.69992,34.397338 6.69992,34.397338 6.69992,34.397338"
         id="path5139" />
      <path
         transform="matrix(0.48581946,-0.09462805,0.09462805,0.48581946,184.08287,-27.610093)"
         d="m 292.99246,253.53929 c 0,5.51263 -4.46887,9.98151 -9.9815,9.98151 -5.51264,0 -9.98151,-4.46888 -9.98151,-9.98151 0,-5.51263 4.46887,-9.9815 9.98151,-9.9815 5.51263,0 9.9815,4.46887 9.9815,9.9815 z"
         sodipodi:ry="9.9815054"
         sodipodi:rx="9.9815054"
         sodipodi:cy="253.53929"
         sodipodi:cx="283.01096"
         id="path5141"
         style="fill:#ffffff;fill-opacity:1;fill-rule:nonzero;stroke:none"
         sodipodi:type="arc" />
      <path
         sodipodi:type="arc"
         style="fill:#ffffff;fill-opacity:1;fill-rule:nonzero;stroke:none"
         id="path5143"
         sodipodi:cx="283.01096"
         sodipodi:cy="253.53929"
         sodipodi:rx="9.9815054"
         sodipodi:ry="9.9815054"
         d="m 292.99246,253.53929 c 0,5.51263 -4.46887,9.98151 -9.9815,9.98151 -5.51264,0 -9.98151,-4.46888 -9.98151,-9.98151 0,-5.51263 4.46887,-9.9815 9.98151,-9.9815 5.51263,0 9.9815,4.46887 9.9815,9.9815 z"
         transform="matrix(0.48581946,-0.09462805,0.09462805,0.48581946,190.9532,8.8680186)" />
    </g>
    <g
       id="g5362"
       transform="matrix(0.29180186,0.95647879,-0.95647879,0.29180186,242.48223,138.36313)"
       style="fill:#ffffff;fill-opacity:1;stroke:none">
      <path
         id="path5364"
         d="m 345.97222,71.193122 c 6.69992,34.397338 6.69992,34.397338 6.69992,34.397338"
         style="fill:#ffffff;fill-opacity:1;stroke:none" />
      <path
         sodipodi:type="arc"
         style="fill:#ffffff;fill-opacity:1;fill-rule:nonzero;stroke:none"
         id="path5366"
         sodipodi:cx="283.01096"
         sodipodi:cy="253.53929"
         sodipodi:rx="9.9815054"
         sodipodi:ry="9.9815054"
         d="m 292.99246,253.53929 c 0,5.51263 -4.46887,9.98151 -9.9815,9.98151 -5.51264,0 -9.98151,-4.46888 -9.98151,-9.98151 0,-5.51263 4.46887,-9.9815 9.98151,-9.9815 5.51263,0 9.9815,4.46887 9.9815,9.9815 z"
         transform="matrix(0.48581946,-0.09462805,0.09462805,0.48581946,184.08287,-27.610093)" />
      <path
         transform="matrix(0.48581946,-0.09462805,0.09462805,0.48581946,190.9532,8.8680186)"
         d="m 292.99246,253.53929 c 0,5.51263 -4.46887,9.98151 -9.9815,9.98151 -5.51264,0 -9.98151,-4.46888 -9.98151,-9.98151 0,-5.51263 4.46887,-9.9815 9.98151,-9.9815 5.51263,0 9.9815,4.46887 9.9815,9.9815 z"
         sodipodi:ry="9.9815054"
         sodipodi:rx="9.9815054"
         sodipodi:cy="253.53929"
         sodipodi:cx="283.01096"
         id="path5368"
         style="fill:#ffffff;fill-opacity:1;fill-rule:nonzero;stroke:none"
         sodipodi:type="arc" />
    </g>
    <text
       xml:space="preserve"
       style="font-size:7.81873369px;font-style:normal;font-weight:normal;text-align:start;line-height:125%;writing-mode:lr-tb;text-anchor:start;fill:#ffffff;fill-opacity:1;stroke:none;font-family:Bitstream Vera Sans"
       x="278.82156"
       y="415.22101"
       id="text5386"
       sodipodi:linespacing="125%"><tspan
         sodipodi:role="line"
         id="tspan5388"
         x="278.82156"
         y="415.22101">2</tspan></text>
    <text
       xml:space="preserve"
       style="font-size:7.81873369px;font-style:normal;font-weight:normal;text-align:start;line-height:125%;writing-mode:lr-tb;text-anchor:start;fill:#ffffff;fill-opacity:1;stroke:none;font-family:Bitstream Vera Sans"
       x="260.608"
       y="506.28873"
       id="text5394"
       sodipodi:linespacing="125%"><tspan
         sodipodi:role="line"
         id="tspan5396"
         x="260.608"
         y="506.28873">6</tspan></text>
    <g
       id="g5745"
       transform="matrix(-0.05775746,0.99833064,-0.99833064,-0.05775746,504.68423,129.06993)"
       style="fill:#ffffff;fill-opacity:1;stroke:none">
      <path
         id="path5115"
         d="M 394.36367,175.50904 C 362.8558,160.16889 362.8558,160.16889 362.8558,160.16889"
         style="fill:#ffffff;fill-opacity:1;stroke:none" />
      <path
         transform="matrix(0.49493433,0.00387664,-0.00387664,0.49493433,222.39309,32.488801)"
         d="m 292.99246,253.53929 c 0,5.51263 -4.46887,9.98151 -9.9815,9.98151 -5.51264,0 -9.98151,-4.46888 -9.98151,-9.98151 0,-5.51263 4.46887,-9.9815 9.98151,-9.9815 5.51263,0 9.9815,4.46887 9.9815,9.9815 z"
         sodipodi:ry="9.9815054"
         sodipodi:rx="9.9815054"
         sodipodi:cy="253.53929"
         sodipodi:cx="283.01096"
         id="path5710"
         style="fill:#ffffff;fill-opacity:1;fill-rule:nonzero;stroke:none"
         sodipodi:type="arc" />
      <path
         sodipodi:type="arc"
         style="fill:#ffffff;fill-opacity:1;fill-rule:nonzero;stroke:none"
         id="path5724"
         sodipodi:cx="283.01096"
         sodipodi:cy="253.53929"
         sodipodi:rx="9.9815054"
         sodipodi:ry="9.9815054"
         d="m 292.99246,253.53929 c 0,5.51263 -4.46887,9.98151 -9.9815,9.98151 -5.51264,0 -9.98151,-4.46888 -9.98151,-9.98151 0,-5.51263 4.46887,-9.9815 9.98151,-9.9815 5.51263,0 9.9815,4.46887 9.9815,9.9815 z"
         transform="matrix(0.49493433,0.00387664,-0.00387664,0.49493433,256.68503,51.160504)" />
    </g>
    <g
       id="g5736"
       transform="matrix(0.93176205,-0.36306952,0.36306952,0.93176205,-74.56062,468.64898)"
       style="fill:#ffffff;fill-opacity:1;stroke:none">
      <path
         id="path5147"
         d="M 383.66124,80.487138 C 360.5205,106.8039 360.5205,106.8039 360.5205,106.8039"
         style="fill:#ffffff;fill-opacity:1;stroke:none" />
      <path
         sodipodi:type="arc"
         style="fill:#ffffff;fill-opacity:1;fill-rule:nonzero;stroke:none"
         id="path5712"
         sodipodi:cx="283.01096"
         sodipodi:cy="253.53929"
         sodipodi:rx="9.9815054"
         sodipodi:ry="9.9815054"
         d="m 292.99246,253.53929 c 0,5.51263 -4.46887,9.98151 -9.9815,9.98151 -5.51264,0 -9.98151,-4.46888 -9.98151,-9.98151 0,-5.51263 4.46887,-9.9815 9.98151,-9.9815 5.51263,0 9.9815,4.46887 9.9815,9.9815 z"
         transform="matrix(0.49493433,0.00387664,-0.00387664,0.49493433,245.4482,-46.590252)" />
      <path
         transform="matrix(0.49493433,0.00387664,-0.00387664,0.49493433,219.33574,-17.313195)"
         d="m 292.99246,253.53929 c 0,5.51263 -4.46887,9.98151 -9.9815,9.98151 -5.51264,0 -9.98151,-4.46888 -9.98151,-9.98151 0,-5.51263 4.46887,-9.9815 9.98151,-9.9815 5.51263,0 9.9815,4.46887 9.9815,9.9815 z"
         sodipodi:ry="9.9815054"
         sodipodi:rx="9.9815054"
         sodipodi:cy="253.53929"
         sodipodi:cx="283.01096"
         id="path5726"
         style="fill:#ffffff;fill-opacity:1;fill-rule:nonzero;stroke:none"
         sodipodi:type="arc" />
    </g>
    <g
       transform="translate(-63.93833,328.93203)"
       id="g6830"
       style="fill:#ffffff;fill-opacity:1;stroke:none">
      <path
         style="fill:#ffffff;fill-opacity:1;stroke:none"
         d="M 316.13962,97.357363 C 288.7671,75.475601 288.7671,75.475601 288.7671,75.475601"
         id="path5123" />
      <path
         transform="matrix(0.49493433,0.00387664,-0.00387664,0.49493433,148.84726,-51.892929)"
         d="m 292.99246,253.53929 c 0,5.51263 -4.46887,9.98151 -9.9815,9.98151 -5.51264,0 -9.98151,-4.46888 -9.98151,-9.98151 0,-5.51263 4.46887,-9.9815 9.98151,-9.9815 5.51263,0 9.9815,4.46887 9.9815,9.9815 z"
         sodipodi:ry="9.9815054"
         sodipodi:rx="9.9815054"
         sodipodi:cy="253.53929"
         sodipodi:cx="283.01096"
         id="path5714"
         style="fill:#ffffff;fill-opacity:1;fill-rule:nonzero;stroke:none"
         sodipodi:type="arc" />
      <path
         sodipodi:type="arc"
         style="fill:#ffffff;fill-opacity:1;fill-rule:nonzero;stroke:none"
         id="path5728"
         sodipodi:cx="283.01096"
         sodipodi:cy="253.53929"
         sodipodi:rx="9.9815054"
         sodipodi:ry="9.9815054"
         d="m 292.99246,253.53929 c 0,5.51263 -4.46887,9.98151 -9.9815,9.98151 -5.51264,0 -9.98151,-4.46888 -9.98151,-9.98151 0,-5.51263 4.46887,-9.9815 9.98151,-9.9815 5.51263,0 9.9815,4.46887 9.9815,9.9815 z"
         transform="matrix(0.49493433,0.00387664,-0.00387664,0.49493433,178.29763,-27.687998)" />
    </g>
    <text
       sodipodi:linespacing="125%"
       id="text5750"
       y="489.91959"
       x="213.80612"
       style="font-size:7.81873369px;font-style:normal;font-weight:normal;text-align:start;line-height:125%;writing-mode:lr-tb;text-anchor:start;fill:#ffffff;fill-opacity:1;stroke:none;font-family:Bitstream Vera Sans"
       xml:space="preserve"><tspan
         y="489.91959"
         x="213.80612"
         id="tspan5752"
         sodipodi:role="line">7</tspan></text>
    <text
       sodipodi:linespacing="125%"
       id="text5754"
       y="503.29156"
       x="317.09305"
       style="font-size:7.81873369px;font-style:normal;font-weight:normal;text-align:start;line-height:125%;writing-mode:lr-tb;text-anchor:start;fill:#ffffff;fill-opacity:1;stroke:none;font-family:Bitstream Vera Sans"
       xml:space="preserve"><tspan
         y="503.29156"
         x="317.09305"
         id="tspan5756"
         sodipodi:role="line">5</tspan></text>
    <text
       xml:space="preserve"
       style="font-size:7.81873369px;font-style:normal;font-weight:normal;text-align:start;line-height:125%;writing-mode:lr-tb;text-anchor:start;fill:#ffffff;fill-opacity:1;stroke:none;font-family:Bitstream Vera Sans"
       x="308.56265"
       y="425.13474"
       id="text5758"
       sodipodi:linespacing="125%"><tspan
         sodipodi:role="line"
         id="tspan5760"
         x="308.56265"
         y="425.13474">3</tspan></text>
    <text
       sodipodi:linespacing="125%"
       id="text5762"
       y="412.9155"
       x="238.70566"
       style="font-size:7.81873369px;font-style:normal;font-weight:normal;text-align:start;line-height:125%;writing-mode:lr-tb;text-anchor:start;fill:#ffffff;fill-opacity:1;stroke:none;font-family:Bitstream Vera Sans"
       xml:space="preserve"><tspan
         y="412.9155"
         x="238.70566"
         id="tspan5764"
         sodipodi:role="line">1</tspan></text>
  </g>
</svg>
